# xmcd
#
# Track frame offsets: 
#        150
#        13744
#        28157
#        40131
#        52040
#        62691
#        71681
#        83310
#        94809
#        108485
#        119616
#        129364
#        140174
#
# Disc length: 3269 seconds
#
# Revision: 0
# Processed by: cddbd v1.5.1PL0 Copyright (c) Steve Scherf et al.
# Submitted via: ExactAudioCopy v0.95a5
#
DISCID=b60cc30d
DTITLE=The Black Keys - The Big Come Up
DYEAR=2002
DGENRE=Blues
TTITLE0=Busted
TTITLE1=Do The Rump
TTITLE2=I'll Be Your Man
TTITLE3=Countdown
TTITLE4=The Breaks
TTITLE5=Run Me Down
TTITLE6=Leavin' Trunk
TTITLE7=Heavy Soul
TTITLE8=She Said, She Said
TTITLE9=The Eyes
TTITLE10=Yearnin'
TTITLE11=Brooklyn Bound
TTITLE12=240 Years Before Your Time
EXTD=
EXTT0=
EXTT1=
EXTT2=
EXTT3=
EXTT4=
EXTT5=
EXTT6=
EXTT7=
EXTT8=
EXTT9=
EXTT10=
EXTT11=
EXTT12=
PLAYORDER=
